<?xml version="1.0" ?><!DOCTYPE svg  PUBLIC '-//W3C//DTD SVG 1.1//EN'  'http://www.w3.org/Graphics/SVG/1.1/DTD/svg11.dtd'><svg height="512px" style="enable-background:new 0 0 512 512;" version="1.1" viewBox="0 0 512 512" width="512px" xml:space="preserve" xmlns="http://www.w3.org/2000/svg" xmlns:xlink="http://www.w3.org/1999/xlink"><g id="D_-_16_x2C__agreement_x2C__paper_x2C_Document_x2C__note_x2C__report"><g><polygon points="327.75,396.354 300.998,376.29 287.623,423.298   "/><path d="M339.076,399.947c-0.07,0.068-0.152,0.122-0.229,0.187c-0.13,0.109-0.254,0.226-0.395,0.321l-56.179,37.723    c-0.007,0.005-0.016,0.01-0.022,0.016l-0.025,0.016c-0.018,0.013-0.037,0.021-0.056,0.032c-0.16,0.104-0.325,0.198-0.496,0.281    c-0.062,0.03-0.124,0.056-0.186,0.082c-0.135,0.06-0.271,0.112-0.411,0.158c-0.07,0.023-0.141,0.046-0.213,0.065    c-0.143,0.04-0.287,0.07-0.434,0.097c-0.063,0.011-0.125,0.025-0.188,0.034c-0.21,0.028-0.422,0.047-0.634,0.047    c-0.235,0-0.472-0.021-0.708-0.057c-0.039-0.006-0.078-0.019-0.117-0.026c-0.191-0.034-0.383-0.075-0.571-0.135    c-0.073-0.023-0.144-0.057-0.216-0.084c-0.15-0.055-0.299-0.11-0.445-0.182c-0.088-0.043-0.172-0.098-0.258-0.148    c-0.102-0.057-0.205-0.105-0.302-0.171c-0.259-0.175-26.088-17.358-42.137-9.336c-4.397,2.199-9.6,3.069-15.073,3.07    c-20.171,0.001-44.072-11.805-45.343-12.44c-2.314-1.157-3.252-3.97-2.096-6.284c1.155-2.313,3.97-3.256,6.285-2.098    c9.853,4.916,38.408,16.184,52.037,9.372c15.813-7.91,36.422,1.309,46.116,6.667l17.068-59.984    c0.053-0.182,0.135-0.35,0.207-0.523c0.047-0.111,0.078-0.229,0.133-0.336c0.143-0.276,0.313-0.54,0.509-0.785L406.4,225.855    V101.379h-54.629c-2.588,0-4.686-2.097-4.686-4.685V45.153H50.026v421.693H406.4V304.83l-66.733,94.438    C339.493,399.515,339.293,399.74,339.076,399.947z M92.196,82.637h161.65c2.588,0,4.686,2.099,4.686,4.686    c0,2.588-2.098,4.686-4.686,4.686H92.196c-2.587,0-4.686-2.098-4.686-4.686C87.51,84.736,89.609,82.637,92.196,82.637z     M92.196,129.492h243.645c2.588,0,4.686,2.098,4.686,4.686c0,2.588-2.098,4.685-4.686,4.685H92.196    c-2.587,0-4.686-2.097-4.686-4.685C87.51,131.59,89.609,129.492,92.196,129.492z M92.196,157.605h243.645    c2.588,0,4.686,2.098,4.686,4.686c0,2.588-2.098,4.686-4.686,4.686H92.196c-2.587,0-4.686-2.098-4.686-4.686    C87.51,159.703,89.609,157.605,92.196,157.605z M312.414,246.629c0,2.588-2.098,4.686-4.686,4.686H129.68    c-2.587,0-4.686-2.098-4.686-4.686c0-2.587,2.099-4.686,4.686-4.686h178.049C310.316,241.943,312.414,244.042,312.414,246.629z     M92.196,185.718h161.65c2.588,0,4.686,2.099,4.686,4.686c0,2.588-2.098,4.686-4.686,4.686H92.196    c-2.587,0-4.686-2.098-4.686-4.686C87.51,187.816,89.609,185.718,92.196,185.718z M92.196,213.831h121.823    c2.588,0,4.685,2.099,4.685,4.686c0,2.588-2.097,4.686-4.685,4.686H92.196c-2.587,0-4.686-2.098-4.686-4.686    C87.51,215.929,89.609,213.831,92.196,213.831z M87.51,274.742c0-2.588,2.099-4.686,4.686-4.686h215.533    c2.588,0,4.686,2.098,4.686,4.686s-2.098,4.686-4.686,4.686H92.196C89.609,279.428,87.51,277.33,87.51,274.742z"/><polygon points="356.457,47.154 356.457,92.008 402.123,92.008   "/><path d="M305.035,367.604l29.761,22.32l72.464-102.549c0.02-0.028,0.04-0.056,0.061-0.084l26.634-35.973l-22.402-16.9    L305.035,367.604z"/><polygon points="439.473,196.975 417.265,226.99 439.547,243.799 461.974,213.791   "/></g></g><g id="Layer_1"/></svg>