<?xml version="1.0" ?><!DOCTYPE svg  PUBLIC '-//W3C//DTD SVG 1.1//EN'  'http://www.w3.org/Graphics/SVG/1.1/DTD/svg11.dtd'><svg height="512px" style="enable-background:new 0 0 512 512;" version="1.1" viewBox="0 0 512 512" width="512px" xml:space="preserve" xmlns="http://www.w3.org/2000/svg" xmlns:xlink="http://www.w3.org/1999/xlink"><g id="_x37_08_x2C__Business_x2C__concept_x2C__idea_x2C__innovation_x2C__light"><g><path d="M170.389,201.895h-0.014l-0.01,0.022l-0.011,0.022l-0.01,0.023    l-0.035,0.022v0.022l-0.024,0.048h-0.011c-0.288,0.437-0.509,0.944-0.656,1.451c-0.162,0.507-0.242,1.084-0.242,1.683    c0,1.59,0.646,3.043,1.681,4.08c1.049,1.037,2.502,1.705,4.103,1.705c1.165,0,2.235-0.346,3.124-0.923l0.07-0.046    c0.898-0.575,1.614-1.405,2.063-2.396l0.021-0.046h0.01v-0.022l0.025-0.023c0.137-0.322,0.252-0.715,0.347-1.107    c0.067-0.391,0.112-0.807,0.112-1.221c0-1.59-0.646-3.043-1.681-4.103c-1.05-1.037-2.502-1.683-4.092-1.683    c-1,0-1.934,0.231-2.741,0.668C171.6,200.512,170.909,201.133,170.389,201.895 M191.559,254.489    c0.344,0.368,0.737,0.669,1.165,0.946l0.056,0.045l0.091,0.046c2.745,1.638,6.938,1.798,12.217,0.646    c3.987-0.898,8.528-2.513,13.438-4.816h0.011l0.379-0.185l0.277-0.116l0.116-0.068l0.404-0.184l0.137-0.07l0.256-0.114l0.39-0.209    l0.035-0.022l0.369-0.162l0.302-0.161l0.091-0.046l0.404-0.207l0.196-0.093l0.207-0.114l0.404-0.207l0.081-0.047l0.323-0.162    l0.4-0.207l0,0l0.403-0.229l0.323-0.161l0.095-0.046l0.414-0.231l0.242-0.139l0.172-0.092l0.414-0.207l0.162-0.092l0.252-0.139    l0.417-0.23l0.081-0.046l0.333-0.208l0.415-0.23l0,0l0.414-0.23l0.347-0.207l0.081-0.047l0.424-0.252l0.256-0.139l0.162-0.094    l0.424-0.252c-1.716-7.515-3.099-15.858-4.078-24.777c-3.379-0.369-6.65-0.785-9.844-1.268    c-5.254-0.807-10.245-1.729-14.933-2.813l-0.242,0.416l-0.095,0.161l-0.162,0.275l-0.252,0.416l-0.035,0.068l-0.193,0.346    l-0.242,0.414h-0.014l-0.228,0.438l-0.186,0.323l-0.046,0.091l-0.231,0.416l-0.137,0.23l-0.091,0.184l-0.232,0.416l-0.091,0.162    l-0.141,0.252l-0.218,0.392l-0.035,0.093l-0.186,0.323l-0.207,0.414l0,0l-0.218,0.394l-0.172,0.346l-0.046,0.068l-0.207,0.414    l-0.105,0.209l-0.091,0.184l-0.207,0.391l-0.035,0.094l-0.162,0.321l-0.186,0.37l-0.01,0.023l-0.197,0.391l-0.126,0.254    l-0.07,0.137l-0.183,0.394l-0.06,0.138l-0.137,0.254l-0.186,0.391l0,0c-2.302,4.934-3.917,9.449-4.794,13.461    c-1.302,5.924-0.944,10.51,1.337,13.184l0.116,0.116l0.116,0.138l0.126,0.115l0,0L191.559,254.489z M229.749,170.201    c1.06-1.082,2.134-2.165,3.215-3.25c1.095-1.105,2.179-2.165,3.264-3.225c-2.028,0.137-4.022,0.299-5.994,0.482    C230.047,166.169,229.886,168.175,229.749,170.201z M279.05,213.026c-1.084,1.083-2.179,2.143-3.264,3.204    c2.019-0.139,4.022-0.301,6.005-0.461c0.176-1.983,0.323-3.987,0.474-6.016C281.205,210.836,280.131,211.943,279.05,213.026z     M282.876,134.27c1.727,7.514,3.112,15.835,4.077,24.777c4.289,0.461,8.438,1.014,12.424,1.66    c4.31,0.714,8.438,1.521,12.354,2.396c1.327-2.235,2.549-4.426,3.654-6.545c7.64-14.705,9.945-26.23,5.105-31.07    c-4.828-4.816-16.34-2.512-31.045,5.117C287.312,131.711,285.111,132.932,282.876,134.27z M251.529,149.875    c-5.924-4.703-11.732-8.896-17.309-12.47c-0.414,1.958-0.818,3.964-1.197,6.015c-0.877,4.749-1.614,9.795-2.215,15.051    c3.85-0.322,7.802-0.6,11.824-0.784C245.605,154.967,248.581,152.363,251.529,149.875z M260.587,157.434    c-1.53-1.337-3.064-2.629-4.587-3.895c-1.52,1.266-3.043,2.558-4.573,3.895c1.509-0.022,3.042-0.047,4.573-0.047    C257.544,157.387,259.067,157.411,260.587,157.434z M292.464,189.978c-1.268-1.521-2.583-3.043-3.906-4.587    c0.021,1.521,0.035,3.065,0.035,4.587c0,1.544-0.015,3.065-0.035,4.587C289.881,193.02,291.196,191.499,292.464,189.978z     M308.576,211.758c-3.573-5.555-7.757-11.385-12.47-17.309c-2.492,2.949-5.096,5.924-7.815,8.896    c-0.183,4.033-0.439,7.975-0.772,11.823C295.047,214.316,302.107,213.164,308.576,211.758z M320.49,254.467    c0.299-0.301,0.576-0.621,0.828-0.992l0.046-0.068l0.095-0.139c1.727-2.742,1.913-7.006,0.737-12.354l-0.024-0.045    c-1.52-6.916-5.127-14.66-8.746-21.068l-0.045-0.091l-0.197-0.323l-0.231-0.438l0,0l-0.228-0.414l-0.207-0.346l-0.05-0.068    l-0.242-0.416l-0.147-0.275l-0.091-0.161l-0.257-0.416c-7.514,1.729-15.855,3.111-24.777,4.08    c-0.807,7.42-1.912,14.428-3.249,20.904c-0.264,1.314-0.552,2.605-0.828,3.873l0.414,0.252l0.172,0.094l0.256,0.139l0.425,0.252    l0.081,0.047l0.333,0.207l0.418,0.23h0.01l0.414,0.23l0.334,0.208l0.095,0.022l0.414,0.254l0.242,0.139l0.172,0.092l0.414,0.207    l0.161,0.092l0.253,0.139l0.403,0.231l0.081,0.046l0.323,0.161l0.414,0.229l0,0l0.403,0.207l0.337,0.162l0.066,0.047l0.404,0.207    l0.207,0.114l0.196,0.093l0.403,0.207l0.081,0.046l0.322,0.139l0.369,0.185l0.024,0.022l0.39,0.187    c5.534,2.718,10.602,4.607,15.027,5.576c5.637,1.221,10.062,0.969,12.771-1.037l0.066-0.022l0.07-0.069l0.137-0.115l0.05-0.023    l0,0l0.217-0.207h0.011L320.49,254.467L320.49,254.467z M260.471,230.082c5.924,4.725,11.746,8.896,17.313,12.468l0.39-1.843    c1.235-5.947,2.26-12.4,3.032-19.223c-3.86,0.346-7.802,0.6-11.823,0.784C266.409,224.988,263.433,227.592,260.471,230.082z     M251.427,222.521c1.53,1.337,3.053,2.65,4.573,3.918c1.522-1.268,3.057-2.581,4.587-3.918c-1.52,0.024-3.043,0.047-4.587,0.047    C254.47,222.568,252.947,222.546,251.427,222.521z M229.289,201.041c2.478,2.673,5.036,5.324,7.686,7.974    c2.649,2.651,5.313,5.21,7.963,7.675c3.629,0.139,7.328,0.207,11.062,0.207c3.759,0,7.447-0.068,11.065-0.207    c2.674-2.465,5.324-5.023,7.974-7.675c2.649-2.649,5.208-5.301,7.675-7.974c0.137-3.618,0.207-7.307,0.207-11.063    c0-3.734-0.07-7.421-0.207-11.063c-2.467-2.65-5.025-5.324-7.675-7.974c-2.649-2.629-5.3-5.21-7.974-7.675    c-3.618-0.139-7.307-0.207-11.065-0.207c-3.734,0-7.433,0.068-11.062,0.207c-2.649,2.465-5.313,5.023-7.963,7.675    c-2.639,2.649-5.208,5.323-7.686,7.974c-0.126,3.619-0.196,7.329-0.196,11.063C229.093,193.734,229.163,197.423,229.289,201.041z     M219.55,189.978c1.267,1.521,2.569,3.065,3.906,4.587c-0.021-1.521-0.035-3.043-0.035-4.587c0-1.521,0.014-3.065,0.035-4.587    C222.119,186.935,220.817,188.456,219.55,189.978z M203.428,168.197c3.583,5.576,7.767,11.385,12.48,17.309    c2.478-2.949,5.096-5.924,7.815-8.896c0.183-4.033,0.449-7.975,0.772-11.823C216.981,165.639,209.906,166.79,203.428,168.197z     M251.529,230.082c-2.948-2.49-5.924-5.094-8.896-7.813c-4.022-0.185-7.974-0.438-11.824-0.784    c0.864,7.536,2.018,14.613,3.422,21.065C239.797,238.979,245.605,234.807,251.529,230.082z M288.291,176.609    c2.72,2.973,5.323,5.947,7.815,8.896c4.713-5.924,8.896-11.732,12.479-17.309c-3.229-0.691-6.604-1.337-10.117-1.912    c-3.517-0.578-7.181-1.063-10.95-1.499C287.852,168.635,288.108,172.576,288.291,176.609z M275.775,163.727    c1.096,1.06,2.19,2.119,3.274,3.225c1.081,1.085,2.155,2.168,3.204,3.25c-0.14-2.026-0.287-4.032-0.463-5.992    C279.809,164.025,277.805,163.863,275.775,163.727z M260.471,149.875c2.962,2.488,5.938,5.092,8.921,7.834    c4.012,0.162,7.953,0.439,11.803,0.762c-0.853-7.514-2.007-14.59-3.411-21.065C272.217,140.979,266.395,145.172,260.471,149.875z     M212.233,189.978c-5.612-6.983-10.521-13.875-14.613-20.397c-2.534,0.646-4.956,1.338-7.247,2.074    c-15.79,4.979-25.563,11.501-25.563,18.323c0,1.314,0.383,2.627,1.12,3.919c0.218,0.367,0.46,0.736,0.716,1.105h0.011l0.035,0.047    v0.023l0.161,0.207l0,0l0.021,0.045h0.014l0.011,0.023l0.021,0.023l0,0l0.049,0.068h0.011l0.021,0.023l0.014,0.023l0.032,0.047    l0.024,0.022l0,0l0.105,0.114v0.023l0.021,0.023l0,0l0.045,0.068h0.024v0.023l0.021,0.023h0.014l0.147,0.184l0.014,0.024    l0.102,0.114l0,0l0.025,0.023l0,0l0.217,0.23c0.6-0.484,1.246-0.945,1.938-1.314c1.614-0.852,3.467-1.359,5.415-1.359    c3.159,0,6.029,1.291,8.089,3.343c2.063,2.074,3.355,4.956,3.355,8.112c0,0.6-0.045,1.221-0.151,1.821l0,0l0.035,0.022    l0.333,0.115h0.014l0.091,0.023l0.298,0.114h0.046l0.221,0.093l0.116,0.023l0.01,0.022l0.393,0.139h0.046l0.691,0.229l0.056,0.023    l0.172,0.047l0.116,0.046l0.116,0.046l0,0l0.116,0.022l0.231,0.093l0.045,0.023l0.414,0.115l0,0l0.601,0.185l0.112,0.046    l0.105,0.022l0.011,0.022l0.126,0.023l0.116,0.047l0.126,0.023l0.035,0.022l0.081,0.022l0.761,0.23l0.116,0.024l0.116,0.046    l0.126,0.045l0.056,0.023h0.07l0.126,0.047l0.126,0.023l0.105,0.045h0.011l0.137,0.046l0.116,0.022l0.141,0.048h0.021l0.091,0.022    l0.14,0.046l0.116,0.046l0.081,0.022h0.056l0.116,0.048l0.137,0.022l0.126,0.046l0,0l0.13,0.022l0.126,0.046l0.126,0.047h0.046    l0.081,0.023l0.126,0.045l0.126,0.023l0.105,0.022l0.021,0.024l0.141,0.023l0.126,0.045l0.126,0.023l0.025,0.022l0.102,0.022    l0.126,0.025l0.14,0.045l0.081,0.023l0.045,0.022l0.126,0.022l0.137,0.046l0.126,0.024h0.014l0.112,0.023l0.14,0.045l0.126,0.046    h0.056l0.07,0.022l0.14,0.048l0.137,0.022l0.102,0.023h0.014l0.137,0.045l0.141,0.023h0.01    C201.701,203.853,206.621,196.984,212.233,189.978z M223.723,203.368c-2.72-2.973-5.324-5.945-7.802-8.919    c-4.727,5.924-8.911,11.754-12.494,17.309c4.001,0.853,8.216,1.592,12.631,2.305c2.744,0.415,5.555,0.783,8.437,1.106    C224.158,211.32,223.906,207.379,223.723,203.368z M232.964,213.026c-1.081-1.083-2.155-2.167-3.205-3.25    c0.141,2.006,0.288,4.01,0.474,5.993c1.983,0.16,3.966,0.322,5.994,0.461C235.143,215.169,234.048,214.109,232.964,213.026z     M200.283,163.104c7.524-1.705,15.845-3.088,24.777-4.08c0.632-5.809,1.439-11.361,2.408-16.617    c0.52-2.813,1.084-5.531,1.681-8.137c-2.257-1.338-4.447-2.559-6.566-3.664c-14.705-7.629-26.23-9.934-31.059-5.117    c-4.829,4.84-2.523,16.365,5.106,31.07C197.735,158.678,198.957,160.868,200.283,163.104z M252.315,99.768l0.067,0.137    l0.014,0.047l0.032,0.115l0.025,0.047l0,0l0.105,0.252l0.011,0.047l0,0l0.021,0.047l0.024,0.045v0.023l0.091,0.253v0.024    l0.011,0.023l0.035,0.113l0.014,0.07h0.011v0.045l0.021,0.047v0.021l0.014,0.025l0.066,0.275l0,0l0.014,0.07l0.011,0.045    l0.01,0.047l0.014,0.069l0,0l0.01,0.046l0.011,0.045v0.023l0.01,0.047v0.046l0,0l0.025,0.069v0.045l0,0l0.01,0.07l0.014,0.022    v0.022v0.047l0.021,0.047v0.022v0.046v0.045l0.011,0.023l0.014,0.047v0.023v0.045v0.047v0.023l0.01,0.046l0.011,0.046v0.023v0.021    v0.07v0.023v0.022l0.014,0.069v0.023v0.023l0.011,0.068l0,0v0.045v0.07l0,0v0.046v0.069l0,0v0.047v0.068l0,0v0.045v0.07    c0,2.397-0.969,4.588-2.548,6.178c-1.579,1.566-3.769,2.535-6.177,2.535h-0.035h-0.021h-0.024h-0.021h-0.049h-0.021h-0.024h-0.021    l0,0h-0.035h-0.01h-0.024h-0.025h-0.021l0,0h-0.035h-0.035h-0.021h-0.024l0,0h-0.035h-0.035h-0.045l-0.021-0.023h-0.049h-0.021    h-0.011h-0.014h-0.032h-0.024l-0.197-0.023h-0.035c-0.288-0.023-0.575-0.068-0.863-0.138c-2.628,5.302-4.966,11.962-6.938,19.638    c6.535,4.103,13.402,9.011,20.397,14.635c7.008-5.624,13.876-10.532,20.411-14.611c-0.656-2.536-1.337-4.956-2.063-7.262    c-5.001-15.787-11.501-25.561-18.348-25.561c-0.955,0-1.888,0.208-2.787,0.576L252.315,99.768z M342.941,182.279    c-1.064,0.785-2.307,1.338-3.644,1.566l-0.035,0.023l-0.126,0.023h-0.046h-0.024l-0.137,0.023h-0.07l0,0l-0.07,0.023h-0.031    h-0.035h-0.07h-0.011l-0.06,0.023h-0.045h-0.021h-0.07h-0.024h-0.046l-0.07,0.021l0,0h-0.066h-0.035h-0.035h-0.07l0,0h-0.066    h-0.046h-0.024h-0.07h-0.021h-0.045h-0.07c-2.408,0-4.598-0.968-6.177-2.535c-1.569-1.59-2.548-3.779-2.548-6.177    c0-0.323,0.01-0.646,0.06-0.968c-4.313-1.752-9.244-3.342-14.684-4.725c-4.103,6.522-9.013,13.391-14.635,20.397    c5.622,7.007,10.532,13.875,14.635,20.397c2.537-0.645,4.955-1.336,7.236-2.052c0.832-0.275,1.64-0.53,2.442-0.806l0.348-0.115    l0.102-0.046l0.242-0.07l0.348-0.114l0.115-0.047l0.229-0.092l0.348-0.115l0.115-0.046l0.229-0.093l0.337-0.114l0.103-0.048    l0.23-0.068l0.668-0.254l0.322-0.137c2.513-0.969,4.829-1.982,6.918-3.066c5.436-2.765,9.311-5.808,11.198-8.966h0.024    l0.021-0.046v-0.023l0.161-0.229h0.015l0.056-0.094c0.656-1.221,0.993-2.49,0.993-3.757c0-1.451-0.484-2.927-1.396-4.38    C345.096,184.492,344.138,183.362,342.941,182.279z M267.455,280.765c-0.102-0.553-0.288-1.083-0.551-1.567l0,0l-0.035-0.045    l-0.011-0.025l-0.015-0.021l-0.01-0.023l-0.025-0.023l-0.01-0.022l-0.011-0.022l-0.024-0.023l-0.011-0.023l-0.011-0.047h-0.024    l-0.021-0.045l0,0l-0.024-0.046l-0.045-0.069l-0.025-0.023h-0.01l-0.035-0.046l0,0l-0.137-0.185l0,0l-0.151-0.161l-0.011-0.022    l-0.07-0.07l-0.01-0.023l-0.025-0.021l-0.056-0.047l-0.024-0.022c-0.196-0.185-0.403-0.346-0.621-0.507l0,0l-0.218-0.139h-0.024    l-0.024-0.023h-0.032l-0.014-0.022l-0.035-0.024h-0.011l-0.035-0.022h-0.011l-0.035-0.022h-0.01l-0.035-0.023h-0.024l-0.032-0.023    h-0.014l-0.046-0.021l-0.046-0.023l0,0l-0.045-0.024h-0.011l-0.035-0.022h-0.011l-0.049-0.023h-0.011l-0.035-0.023h-0.011    l-0.045-0.021h-0.011l-0.06-0.023c-0.231-0.093-0.46-0.162-0.713-0.207h-0.024l-0.091-0.024l0,0l-0.105-0.022h-0.011h-0.046    h-0.024l-0.021-0.023h-0.024h-0.025h-0.045h-0.011h-0.046h-0.011h-0.045v-0.022h-0.05h-0.01h-0.046h-0.011h-0.046h-0.024h-0.024    h-0.031h-0.015h-0.045h-0.011h-0.06l0,0h-0.046c-1.302,0-2.478,0.507-3.316,1.36c-0.867,0.852-1.383,2.027-1.383,3.317    c0.046,0.532,0.046,0.739,0.112,1.062v0.023l0.014,0.022l0.046,0.185l0.021,0.068c0.06,0.209,0.126,0.393,0.221,0.577v0.022    l0.021,0.023v0.022l0.014,0.022l0.011,0.023v0.024l0.021,0.022l0,0l0.024,0.046l0.025,0.046l0.021,0.045l0.011,0.025h0.014    c0.229,0.437,0.552,0.828,0.898,1.174l0.011,0.024l0.024,0.022l0.035,0.023l0.021,0.022l0,0l0.035,0.022l0.011,0.023l0.024,0.022    h0.021l0.015,0.024l0.035,0.023l0,0l0.031,0.022l0,0l0.035,0.022l0.014,0.023l0.011,0.022l0.116,0.07h0.01l0.011,0.022    l0.035,0.023h0.011l0.035,0.022l0,0l0.035,0.022l0.011,0.023h0.034l0.011,0.022h0.015l0.161,0.116h0.021l0.046,0.022v0.022h0.05    v0.025l0.112,0.045l0,0l0.049,0.023l0,0l0.031,0.022h0.015l0.021,0.022h0.024l0.183,0.094h0.035l0.011,0.022h0.049l0.032,0.022    h0.014l0.021,0.023h0.025l0.021,0.022h0.035h0.014l0.046,0.022l0.046,0.025h0.011h0.024h0.035l0.011,0.022h0.035h0.01l0.046,0.022    l0,0h0.035l0.024,0.023h0.021h0.024h0.021l0.046,0.022l0,0h0.046l0,0l0.049,0.022h0.021h0.024l0.021,0.023h0.025h0.045l0,0    l0.046,0.023l0,0h0.046h0.024h0.021l0.025,0.023h0.024h0.045l0,0h0.046l0,0l0.046,0.023h0.024h0.021h0.035h0.01h0.046h0.049h0.011    l0.035,0.022h0.021h0.024h0.046l0,0h0.045h0.046h0.024h0.035h0.021h0.024h0.035h0.021h0.046h0.046h0.07h0.06h0.056h0.07h0.057    l0.06-0.022h0.056h0.011h0.046h0.07l0.045-0.023l0,0h0.07h0.046h0.011l0.06-0.023l0,0h0.045l0.07-0.023h0.046h0.011l0.056-0.023    l0,0l0.05-0.022h0.01h0.057l0,0l0.046-0.022l0,0h0.06l0,0l0.056-0.023l0,0l0.046-0.022h0.014l0.057-0.022l0,0h0.046l0,0    l0.045-0.025h0.024l0.046-0.022l0,0l0.046-0.022l0,0l0.06-0.023l0,0l0.056-0.022l0,0l0.046-0.022l0,0l0.046-0.023h0.014    l0.046-0.024h0.011l0.045-0.022l0,0l0.046-0.023l0,0l0.046-0.022h0.014l0.046-0.022h0.011l0.045-0.023l0,0l0.046-0.022l0,0    l0.046-0.022l0,0l0.049-0.025l0.011-0.022l0.035-0.022h0.011l0.045-0.023h0.011l0.035-0.022h0.015l0.031-0.046h0.014l0.046-0.024    l0,0l0.046-0.022l0,0l0.045-0.046l0,0l0.046-0.022l0,0l0.046-0.023v-0.022l0.049-0.022l0,0l0.046-0.025v-0.022l0.031-0.022h0.015    l0.035-0.023h0.01l0.021-0.045h0.014l0.035-0.023l0.011-0.024l0.035-0.022h0.011l0.035-0.046l0,0l0.045-0.022l0,0l0.035-0.046    h0.011l0.035-0.024l0.011-0.023l0.024-0.022h0.011l0.035-0.046l0,0l0.035-0.045h0.01l0.025-0.023l0.01-0.024l0.035-0.022l0,0    l0.046-0.046l0,0l0.024-0.046h0.011l0.035-0.047l0,0l0.035-0.046l0,0l0.031-0.022v-0.023l0.049-0.022v-0.022l0.021-0.023l0,0    l0.035-0.047h0.011l0.024-0.046l0.035-0.046l0,0l0.031-0.047l0,0l0.024-0.046l0.046-0.046l0.024-0.045l0,0l0.035-0.048    l0.031-0.068l0.025-0.046l0.024-0.047l0.031-0.046h0.015l0.021-0.046l0.024-0.045l0.021-0.048l0.024-0.068l0.024-0.046h0.011    l0.021-0.047l0,0l0.025-0.046l0.024-0.046v-0.022l0.021-0.048l0.024-0.045l0.021-0.046l0,0l0.024-0.068l0,0l0.011-0.048l0,0    l0.024-0.045l0.021-0.068l0.024-0.048l0,0l0.021-0.046v-0.022l0.015-0.046l0,0l0.011-0.047l0,0l0.021-0.068l0,0l0.015-0.046l0,0    l0.01-0.07l0.024-0.046v-0.045l0.021-0.07v-0.046h0.011l0.014-0.068v-0.048v-0.022l0.021-0.046v-0.045l0.014-0.07l0,0l0.011-0.046    v-0.068l0.011-0.07l0,0v-0.046l0.01-0.068v-0.047v-0.068v-0.07l0.015-0.046v-0.068v-0.07v-0.022v-0.023l0,0v-0.045v-0.023l0,0    l-0.015-0.022v-0.024v-0.023v-0.022v-0.022v-0.023v-0.022v-0.022l0,0v-0.048l0,0v-0.022v-0.023l-0.01-0.022v-0.022v-0.023l0,0    v-0.022v-0.048h-0.011v-0.022v-0.022l0,0l-0.011-0.068l0,0v-0.023l-0.014-0.024v-0.022V280.765L267.455,280.765z M265.451,271.522    c0.6,0.161,1.176,0.368,1.729,0.623h0.021l0.196-0.3l0.011-0.046l0.186-0.3l0.021-0.046l0.07-0.116l0.105-0.161l0.031-0.07    l0.06-0.091l0.102-0.185l0.05-0.07l0.045-0.091l0.092-0.185l0.056-0.093l0.046-0.068l0.095-0.185l0.057-0.116l0.045-0.045    l0.095-0.185l0.067-0.139l0.024-0.046l0.091-0.184l0.187-0.346l0.102-0.185l0,0l0.091-0.187c0.913-1.797,1.812-3.754,2.64-5.854    c1.291-3.202,2.502-6.775,3.597-10.625l0.081-0.252l0.011-0.07l0.141-0.484l0.021-0.046l0.06-0.229l0.081-0.277l0.021-0.068    l0.046-0.185l0.07-0.277l0.035-0.091l0.046-0.187l0.08-0.275l0.025-0.116l0.045-0.161l0.067-0.275l0.034-0.116l0.035-0.161    l0.081-0.3l0.035-0.114l0.035-0.161l0,0c-6.535-4.104-13.403-9.013-20.411-14.637c-6.995,5.624-13.852,10.533-20.397,14.637    l0.045,0.184l0.045,0.162l0.095,0.346l0.126,0.482v0.024l0.126,0.482l0.091,0.346l0.045,0.139l0.141,0.484l0.045,0.207    l0.081,0.277l0.137,0.484l0.014,0.068l0.126,0.416l0.116,0.414l0.021,0.046l0.126,0.484l0.095,0.277l0.056,0.184l0.137,0.484    l0.035,0.114l0.116,0.346l0.137,0.438v0.023l0.141,0.438l0.045,0.162l0.105,0.299l0.102,0.322l0.046,0.139l0.14,0.438l0.011,0.022    l0.137,0.414l0.06,0.186l0.091,0.254l0.116,0.346l0.035,0.092l0.147,0.438l0.024,0.046l0.126,0.392l0.081,0.209l0.07,0.207    c1.821,5.094,3.871,9.449,6.061,12.906c2.372,3.779,4.885,6.408,7.422,7.697l0.021-0.091v-0.022l0.014-0.094l0,0l0.011-0.115    v-0.023l0.021-0.091v-0.022l0.024-0.094v-0.045l0.024-0.047v-0.069l0.011-0.046l0.011-0.092l0.01-0.023l0.024-0.092l0,0    l0.021-0.115v-0.023l0.024-0.092l0.01-0.023l0.025-0.068v-0.047l0.021-0.069l0.024-0.068v-0.022l0.024-0.094l0.011-0.022    l0.035-0.116l0.021-0.091v-0.024l0.035-0.092l0.01-0.022l0.025-0.069l0.024-0.047l0.011-0.045l0.021-0.07l0.014-0.045l0.035-0.092    h0.011l0.021-0.115l0.049-0.094v-0.023l0.045-0.068l0.011-0.045l0.024-0.07l0.021-0.045l0.024-0.047l0.021-0.069l0.014-0.022    l0.046-0.092v-0.024l0.045-0.091l0,0l0.046-0.094l0.01-0.022l0.035-0.069l0.024-0.045l0.021-0.047l0.024-0.068l0.021-0.023    l0.045-0.093l0.014-0.022l0.046-0.068l0.01-0.023l0.046-0.093l0,0l0.045-0.093l0.014-0.023l0.045-0.068l0.021-0.045l0.035-0.048    l0.025-0.046l0.021-0.045l0.049-0.07l0.011-0.023l0.056-0.068v-0.022l0.07-0.093l0,0l0.045-0.068l0.024-0.023l0.046-0.07    l0.021-0.045l0.035-0.046l0.035-0.046l0.024-0.047l0.045-0.068l0.021-0.023l0.06-0.07l0,0l0.066-0.091h0.014l0.045-0.093    l0.021-0.023l0.049-0.045l0.032-0.046l0.035-0.048l0.045-0.045l0.025-0.023l0.045-0.07l0.024-0.022l0.067-0.068l0,0l0.07-0.093    l0,0l0.07-0.068l0.021-0.023l0.046-0.07l0.035-0.022l0.035-0.046l0.045-0.045l0.035-0.023l0.06-0.07l0.011-0.022l0.081-0.068    c1.888-1.89,4.471-3.043,7.328-3.043h0.046h0.07h0.01h0.05h0.056h0.024h0.032h0.06h0.045h0.011h0.06h0.067l0,0l0.045,0.022h0.07    h0.011h0.035h0.07h0.024h0.021h0.069l0.046,0.023h0.011h0.06h0.046h0.011h0.06l0.056,0.022h0.011h0.046h0.045h0.05l0.021,0.022    h0.046h0.046h0.024l0.046,0.025h0.069l0,0l0.046,0.022h0.07h0.011h0.035l0.07,0.022l0.319,0.068h0.069h0.011l0.383,0.094l0,0    L265.451,271.522z M267.293,178.684c-2.881-2.881-6.878-4.654-11.293-4.654c-4.401,0-8.398,1.773-11.293,4.654    c-2.881,2.882-4.654,6.891-4.654,11.294c0,4.425,1.772,8.412,4.654,11.294c2.895,2.881,6.893,4.678,11.293,4.678    c4.415,0,8.412-1.797,11.293-4.678c2.882-2.882,4.682-6.869,4.682-11.294C271.975,185.574,270.175,181.565,267.293,178.684z     M256,168.359c5.97,0,11.374,2.42,15.283,6.338c3.917,3.918,6.35,9.334,6.35,15.28c0,5.97-2.433,11.364-6.328,15.28    c-3.931,3.918-9.335,6.338-15.305,6.338c-5.956,0-11.36-2.42-15.28-6.313c-3.917-3.94-6.338-9.335-6.338-15.305    c0-5.946,2.422-11.362,6.338-15.28C244.64,170.779,250.044,168.359,256,168.359z M337.846,170.663    c2.326,0,4.242,1.913,4.242,4.241c0,2.352-1.916,4.241-4.242,4.241c-2.352,0-4.24-1.89-4.24-4.241    C333.605,172.576,335.494,170.663,337.846,170.663z M446.633,272.767h30.852l-8.009-10.579c-0.934-1.244-0.681-3.019,0.552-3.965    c1.245-0.943,3.032-0.691,3.965,0.553l11.36,15.028c0.404,0.484,0.646,1.107,0.646,1.799c0,0.669-0.242,1.29-0.646,1.797    l-11.36,15.027c-0.933,1.244-2.72,1.499-3.965,0.553c-1.232-0.944-1.485-2.72-0.552-3.964l8.009-10.58h-31.322    c-6.085,22.98-28.086,43.517-60.191,58.59c-33.582,15.787-78.121,25.537-127.135,25.906v5.646    c49.82-0.346,95.213-10.303,129.531-26.436c28.315-13.299,49.187-30.886,58.957-50.844c-3.527,23.646-23.865,45.013-54.935,61.008    c-34.228,17.656-81.36,28.672-133.554,29.063v23.349l10.591-8.021c1.232-0.921,3.019-0.691,3.952,0.553    c0.944,1.244,0.691,3.021-0.551,3.965L257.8,412.578c-0.484,0.414-1.108,0.646-1.8,0.646c-0.667,0-1.288-0.231-1.797-0.646    l-15.017-11.363c-1.242-0.944-1.495-2.721-0.562-3.965c0.944-1.244,2.716-1.474,3.962-0.553l10.581,8.021V381.37    c-52.183-0.392-99.315-11.407-133.543-29.063c-31.07-15.995-51.397-37.361-54.948-61.008c9.798,19.958,30.655,37.545,58.98,50.844    c34.319,16.133,79.701,26.09,129.511,26.436v-5.646c-49.003-0.369-93.542-10.119-127.125-25.906    c-32.104-15.073-54.106-35.609-60.191-58.59H34.519l8.009,10.58c0.933,1.244,0.681,3.02-0.565,3.964    c-1.242,0.946-3.018,0.691-3.952-0.553l-11.364-15.027c-0.414-0.507-0.646-1.128-0.646-1.797c0-0.691,0.231-1.314,0.646-1.799    l11.364-15.028c0.934-1.244,2.709-1.496,3.952-0.553c1.246,0.946,1.499,2.721,0.565,3.965l-8.009,10.579h30.873l0.07-0.368    l0.021-0.068l0.161-0.669l0.046-0.139l0.151-0.601l0.056-0.229l0.463-1.612l0.116-0.371l0.137-0.437l0.091-0.3l0.175-0.508    l0.081-0.229l0.193-0.553l0.06-0.186l0.232-0.622l0.045-0.116l0.252-0.668l0.021-0.046l0.277-0.737l0.025-0.022    c14.473-35.495,61.687-55.778,93.022-65.021l0.691-0.207l0.691-0.207l0,0l0.035,0.045l0.035,0.046h0.011l0.021,0.024l0.035,0.046    c0.53,0.669,1.13,1.337,1.786,1.981l0.035,0.047l0,0l0.045,0.046l-0.288,0.808c-0.313,1.06-0.484,2.165-0.484,3.295    c0,3.134,1.281,6.016,3.355,8.09c2.074,2.074,4.941,3.342,8.1,3.342c2.26,0,4.39-0.668,6.191-1.82    c1.081-0.691,2.049-1.59,2.846-2.604l0,0l0.081,0.022l0.081,0.023l0.081,0.047l0.091,0.023l0.046,0.022h0.035l0.081,0.046    l0.081,0.022l0.081,0.022l0.091,0.023l0.081,0.047l0.081,0.023l0.091,0.022l0.081,0.046l0.081,0.022l0.081,0.024l0.035,0.023    h0.045l0.095,0.045l0.081,0.023l0.081,0.022l0.091,0.022l0.056,0.023l0.024,0.024l0.081,0.022l0.091,0.023l0.081,0.022    l0.081,0.046l0.091,0.022l0,0l0.081,0.024l0.081,0.046l0.091,0.022l0.095,0.023l0.081,0.022l0.035,0.022l0.045,0.025l0.091,0.021    l0.081,0.023l0.081,0.023l0.091,0.022l0.07,0.022l0.025,0.023l0.081,0.022l0.077,0.024l0.095,0.023l0.091,0.045l0.081,0.023h0.011    l0.07,0.022l0.091,0.022l0.095,0.025l0.081,0.045l0.091,0.023l0.035,0.022h0.045l0.091,0.022l0.091,0.046l0.081,0.024l0.081,0.023    l0.081,0.022h0.014l0.091,0.022l0.091,0.046l0.081,0.022l0.081,0.025l0.091,0.021h0.024l0.07,0.023l0.091,0.023l0.081,0.045    l0.091,0.023l0.081,0.023l0.07,0.023h0.021c1.579,0.482,3.229,0.967,4.899,1.406l-0.958,1.682l-0.228,0.438    c-0.625,1.107-1.21,2.189-1.776,3.272l-0.414,0.83l-0.207,0.416l-0.186,0.346l-0.021,0.046l-0.207,0.414l-0.162,0.322l-0.024,0.07    l-0.207,0.414l-0.14,0.301l-0.046,0.091l-0.183,0.394l-0.14,0.298l-0.056,0.093l-0.186,0.392l-0.126,0.276l-0.045,0.116    l-0.183,0.392l-0.116,0.252l-0.07,0.139l-0.162,0.393l-0.102,0.23l-0.081,0.162c-1.973,4.494-3.411,8.713-4.243,12.492    c-1.565,7.098-1.06,12.977,1.787,17.056l0.045,0.091l0.151,0.207l0.07,0.07l0.091,0.138l0.172,0.208v0.023l0.172,0.184    l0.116,0.162l0.06,0.045l0.183,0.207l0.06,0.07l0.116,0.139l0.193,0.185h0.014c0.551,0.553,1.162,1.06,1.818,1.497l0.231,0.161    l0.024,0.022l0.197,0.116l0.193,0.116c4.046,2.42,9.623,2.766,16.294,1.314c4.219-0.946,8.946-2.606,14.063-4.956l0.126-0.069    l0.656-0.301l0.116-0.045l0.277-0.139l0.39-0.185l0.105-0.046l0.298-0.162l0.403-0.184l0.081-0.045l0.312-0.162l0.414-0.184    l0.046-0.048l0.348-0.161l0.414-0.207l0.035-0.023l0.369-0.184l0.404-0.207l0.021-0.023l0.393-0.209l0.828-0.414l0.302-0.161    l0.102-0.068l1.256-0.669l0.172-0.115l0.242-0.116l0.417-0.253l0.112-0.045l1.569-0.9c0.505,1.914,1.049,3.757,1.6,5.533    c0.808,2.58,1.66,5,2.573,7.281l0.137,0.394l0.116,0.275l0.046,0.093c1.635,4.055,3.411,7.628,5.289,10.603    c3.956,6.268,8.493,10.141,13.484,11.039c0.277,0.462,0.589,0.923,0.933,1.36c0.379-0.185,0.818-0.299,1.267-0.299    c1.568,0,2.836,1.267,2.836,2.834v0.575l0.069,0.024h0.011l0.092,0.023l0.014,0.022l0.081,0.022l0.379,0.139h0.024l0.066,0.023    l0.046,0.022l0.049,0.022l0.193,0.048v0.022l0.105,0.023h0.024l0.066,0.022l0.046,0.022h0.06l0.081,0.023h0.01l0.105,0.022l0,0    l0.092,0.022l0.035,0.025h0.066l0.06,0.022h0.046l0.07,0.022h0.021l0.105,0.023h0.011l0.126,0.022l0.06,0.022h0.066h0.035    l0.092,0.023h0.014l0.102,0.024h0.015h0.091h0.046l0.046,0.022h0.07h0.045l0.092,0.023l0,0h0.115h0.011l0.081,0.022h0.045h0.07    h0.07h0.021l0.115,0.022l0,0h0.105h0.021h0.08h0.046h0.06h0.081h0.021h0.116h0.126h0.13h0.137h0.138l0.126-0.022h0.13l0.137-0.022    l0,0h0.127l0,0l0.126-0.023l0.141-0.022h0.112h0.014l0.126-0.024l0.127-0.023l0.126-0.022l0,0l0.253-0.046l0.126-0.022l0.13-0.022    l0.112-0.048h0.015l0.126-0.022l0,0l0.116-0.023l0,0l0.126-0.045l0,0l0.126-0.023l0.232-0.093h0.01l0.116-0.046l0.242-0.07    l0.115-0.045l0,0l0.112-0.046l0.116-0.046l0.126-0.047l0,0l0.222-0.114l0.115-0.048l0,0l0.112-0.045l0.116-0.068l0,0l0.231-0.116    l0,0l0.116-0.046l0,0l0.102-0.07l0,0l0.221-0.113l0,0l0.207-0.139l0,0c0.682-0.416,1.292-0.898,1.867-1.477    c1.081-1.082,1.913-2.396,2.443-3.87l0.045-0.116v-0.022l0.035-0.093v-0.023l0.035-0.115l0,0l0.046-0.114l0,0l0.021-0.116v-0.022    l0.05-0.116l0,0l0.021-0.113l0,0l0.035-0.139l0,0l0.035-0.116l0,0l0.021-0.116v-0.022l0.024-0.114l0,0l0.035-0.115v-0.023    l0.021-0.115l0,0l0.015-0.114v-0.024l0.021-0.114l0,0l0.024-0.139l0,0l0.021-0.116l0,0l0.014-0.139l0,0l0.011-0.113v-0.023    l0.011-0.115l0,0l0.011-0.139l0,0l0.014-0.139l0,0l0.011-0.114l0,0v-0.139l0,0v-0.139v-0.139v-0.139v-0.114v-0.139v-0.068v-0.07    l0,0v-0.068v-0.07v-0.045l-0.011-0.068h-0.014v-0.07v-0.068l0,0v-0.07l-0.011-0.068l0,0l-0.011-0.068v-0.048v-0.022l-0.011-0.046    v-0.068h-0.014v-0.139h-0.011l-0.011-0.116v-0.022l-0.014-0.046l-0.011-0.07l0,0l-0.01-0.068l-0.011-0.045L273,279.635    l-0.011-0.046v-0.022c-0.07-0.369-0.161-0.737-0.277-1.083v-0.024l-0.024-0.045l-0.091-0.301l-0.025-0.068l-0.066-0.184l0,0    l-0.024-0.047l-0.024-0.07l0,0l-0.021-0.068l-0.045-0.115l-0.025-0.045l0,0l-0.021-0.069l-0.024-0.047h-0.011l-0.015-0.046    l-0.021-0.068h-0.011l-0.014-0.047l-0.021-0.047l-0.024-0.021v-0.023l-0.021-0.045l-0.024-0.048l0,0l-0.021-0.046l-0.035-0.045    v-0.023l-0.024-0.047l-0.021-0.046l-0.014-0.022l-0.011-0.023l-0.024-0.045l-0.021-0.048h-0.011l-0.024-0.046l-0.024-0.045l0,0    l-0.021-0.048l-0.025-0.046l-0.021-0.022l-0.015-0.022l-0.021-0.07l-0.024-0.023l-0.011-0.022l-0.024-0.046l-0.021-0.045l0,0    l-0.024-0.048l-0.035-0.046h-0.011l-0.021-0.045l-0.024-0.047l-0.024-0.023v-0.023l-0.032-0.045l-0.035-0.023v-0.022l-0.024-0.046    c1.973-3.065,3.825-6.754,5.51-10.947c1.151-2.882,2.246-6.041,3.261-9.429l0.011-0.022l0.368-1.268l0.024-0.07l0.46-1.59    l0.06-0.229l0.011-0.07l0.045-0.161l0.07-0.23l0.057-0.229l0.014-0.022l0.046-0.209c1.843,1.062,3.64,2.051,5.404,2.951    c1.232,0.645,2.442,1.244,3.64,1.82l0.291,0.139l0.112,0.045l0.394,0.185l0.252,0.116l0.141,0.069l0.39,0.185l0.231,0.092    l0.162,0.069l0.379,0.185l0.221,0.092l0.172,0.069c4.507,1.981,8.7,3.411,12.505,4.265c8.16,1.773,14.68,0.851,18.762-3.228l0,0    l0.046-0.048c0.551-0.553,1.035-1.175,1.474-1.818l0.15-0.208l0.012-0.024l0.126-0.207l0.104-0.161l0.035-0.069    c2.383-4.057,2.73-9.609,1.277-16.248l-0.035-0.116c-1.691-7.63-5.183-14.935-8.917-21.803l-0.14-0.255l-0.242-0.414l-0.047-0.115    l-0.182-0.301l-0.717-1.244c2.054-0.553,4.012-1.129,5.9-1.728c2.709-0.853,5.257-1.774,7.64-2.743l0.288-0.115l0.095-0.023    l0.207-0.093l0.288-0.114l0.242-0.115h0.045l0.288-0.139l0.288-0.114l0.115-0.048l0.162-0.068c1.52-0.668,2.951-1.337,4.299-2.028    c5.426-2.765,9.599-5.876,12.237-9.265l0.681,0.184l0.713,0.207l0.579,0.185l0.804,0.231    c27.753,8.297,58.016,21.941,77.581,43.169l0.231,0.255l0.379,0.414l1.165,1.314l0.379,0.437l0.197,0.231l0.564,0.668    c4.208,5.024,7.802,10.578,10.466,16.57l0.564,1.314l0.103,0.255l0.01,0.022l0.302,0.737v0.046l0.277,0.668l0.032,0.116    l0.221,0.622l0.07,0.186l0.193,0.553l0.08,0.229l0.162,0.508l0.104,0.3l0.137,0.437l0.116,0.371l0.46,1.612l0.06,0.229    l0.161,0.601l0.035,0.139l0.147,0.669l0.024,0.068L446.633,272.767z M244.418,98.867c2.65,0,4.808,2.168,4.808,4.816    c0,2.652-2.158,4.819-4.808,4.819c-2.649,0-4.804-2.167-4.804-4.819C239.614,101.035,241.769,98.867,244.418,98.867z" style="fill-rule:evenodd;clip-rule:evenodd;"/></g></g><g id="Layer_1"/></svg>