<?xml version="1.0" ?><!DOCTYPE svg  PUBLIC '-//W3C//DTD SVG 1.1//EN'  'http://www.w3.org/Graphics/SVG/1.1/DTD/svg11.dtd'><svg enable-background="new 0 0 512 512" height="512px" id="_x33_d_x5F_printer" version="1.1" viewBox="0 0 512 512" width="512px" xml:space="preserve" xmlns="http://www.w3.org/2000/svg" xmlns:xlink="http://www.w3.org/1999/xlink"><g><path d="M218.19,351.732c-1.57,0-3.06-0.93-3.697-2.47c-3.426-8.271-5.162-17.039-5.162-26.063c0-8.364,1.498-16.532,4.453-24.278   c0.787-2.064,3.1-3.098,5.163-2.313c2.064,0.788,3.099,3.1,2.312,5.164c-2.606,6.832-3.928,14.041-3.928,21.427   c0,7.968,1.532,15.706,4.553,23.001c0.846,2.041-0.124,4.381-2.165,5.227C219.219,351.635,218.7,351.732,218.19,351.732z"/><path d="M255.393,256.963c-2.209,0-4-1.791-4-4v-12.899c0-6.415,5.219-11.633,11.634-11.633h17.393   c3.807,0,6.904-3.098,6.904-6.905v-0.22c0-3.807-3.098-6.905-6.904-6.905h-17.393c-6.415,0-11.634-5.219-11.634-11.633v-15.892   c0-2.209,1.791-4,4-4s4,1.791,4,4v15.892c0,2.003,1.63,3.633,3.634,3.633h17.393c8.218,0,14.904,6.686,14.904,14.905v0.22   c0,8.219-6.687,14.905-14.904,14.905h-17.393c-2.004,0-3.634,1.63-3.634,3.633v12.899   C259.393,255.172,257.602,256.963,255.393,256.963z"/><path d="M384.863,402.761c-9.281,0-16.832-7.552-16.832-16.833s7.551-16.832,16.832-16.832c9.282,0,16.833,7.551,16.833,16.832   S394.146,402.761,384.863,402.761z M384.863,377.096c-4.87,0-8.832,3.962-8.832,8.832c0,4.871,3.962,8.833,8.832,8.833   s8.833-3.962,8.833-8.833C393.696,381.058,389.733,377.096,384.863,377.096z"/><path d="M348.414,402.761c-9.282,0-16.833-7.552-16.833-16.833s7.551-16.832,16.833-16.832c9.281,0,16.832,7.551,16.832,16.832   S357.695,402.761,348.414,402.761z M348.414,377.096c-4.87,0-8.833,3.962-8.833,8.832c0,4.871,3.963,8.833,8.833,8.833   s8.832-3.962,8.832-8.833C357.246,381.058,353.284,377.096,348.414,377.096z"/><g><path d="M411.52,65.5H100.48c-19.291,0-34.98,15.69-34.98,34.98v311.04c0,19.291,15.689,34.98,34.98,34.98H411.52    c19.291,0,34.98-15.689,34.98-34.98V100.48C446.5,81.19,430.811,65.5,411.52,65.5z M438.5,411.52c0,14.881-12.1,26.98-26.98,26.98    H100.48c-14.881,0-26.98-12.1-26.98-26.98V100.48c0-14.88,12.1-26.98,26.98-26.98H411.52c14.881,0,26.98,12.1,26.98,26.98V411.52z    "/><path d="M382.43,96.64h-84.16v-0.01h-85.76v0.01H129.57c-19.29,0-34.98,15.69-34.98,34.98v228.569    c0,19.291,15.69,34.98,34.98,34.98h111.99c5.31,0,10.459-1.199,15.119-3.439h0.01c4.431-2.11,8.421-5.17,11.66-9.041l0.41-0.489    l13.53-16.11c5.14-6.109,12.67-9.619,20.66-9.619h2.55h9.33h67.6c19.29,0,34.98-15.701,34.98-34.99V131.62    C417.41,112.33,401.72,96.64,382.43,96.64z M220.51,144.83v-9.72v-30.47h69.76v30.47v9.72v5.72h-17.512v-0.001h-34.73v0.001    H220.51V144.83z M246.027,158.55h18.73v15.725l-1.535,3.65h-15.66l-1.535-3.65V158.55z M102.59,131.62    c0-14.88,12.1-26.98,26.98-26.98h82.939v30.47H102.59V131.62z M309.92,348.471h-6.97c-10.36,0-20.13,4.549-26.79,12.479    l-13.94,16.59c-2.14,2.54-4.689,4.64-7.51,6.2h-0.01c-32.97-0.23-59.72-27.131-59.72-60.16c0-33.17,26.989-60.16,60.159-60.16    c33.181,0,60.171,26.99,60.171,60.16C315.311,332.45,313.38,340.88,309.92,348.471z M409.41,321.48    c0,14.879-12.1,26.99-26.98,26.99H318.6c3.04-7.711,4.711-16.111,4.711-24.891c0-36.46-28.78-66.33-64.83-68.08    c-1.101-0.05-2.221-0.08-3.341-0.08c-0.96,0-1.909,0.02-2.85,0.061c-36.26,1.5-65.31,31.479-65.31,68.1    c0,28.939,18.119,53.72,43.609,63.59H129.57c-14.881,0-26.98-12.1-26.98-26.98V144.83h109.92v13.72h25.518v17.338l4.221,10.037    h26.289l4.221-10.037V158.55h25.512v-13.72H409.41V321.48z M409.41,135.11H298.27v-30.47h84.16c14.881,0,26.98,12.1,26.98,26.98    V135.11z"/></g></g></svg>