<?xml version="1.0" ?><!DOCTYPE svg  PUBLIC '-//W3C//DTD SVG 1.1//EN'  'http://www.w3.org/Graphics/SVG/1.1/DTD/svg11.dtd'><svg height="512px" style="enable-background:new 0 0 512 512;" version="1.1" viewBox="0 0 512 512" width="512px" xml:space="preserve" xmlns="http://www.w3.org/2000/svg" xmlns:xlink="http://www.w3.org/1999/xlink"><g id="C_-_152_x2C__Bulb_x2C__concept_x2C__generation_x2C__idea_x2C__innovation_x2C__light_x2C__lightbulb"><g><path d="M255.997,287.188c41.899,0,75.987-34.11,75.987-76.037c0-4.521-0.419-8.944-1.179-13.25h-19.1l-43.777,34.855    c-0.835,0.666-1.865,1.021-2.919,1.021c-0.238,0-0.479-0.018-0.719-0.056c-1.294-0.201-2.445-0.935-3.174-2.022l-33.312-49.736    l-32.097,23.776c-0.8,0.592-1.768,0.915-2.763,0.92l-12.79,0.073c-0.084,1.462-0.138,2.934-0.138,4.417    C180.018,253.078,214.102,287.188,255.997,287.188z"/><rect height="17.541" width="98.766" x="206.617" y="350.378"/><path d="M226.175,171.509c1.03-0.763,2.329-1.07,3.589-0.852c1.262,0.219,2.38,0.945,3.093,2.01l33.215,49.591l41.078-32.707    c0.829-0.661,1.857-1.021,2.918-1.021h18.482c-9.646-30.916-38.523-53.418-72.554-53.418c-37.187,0-68.198,26.882-74.704,62.243    l10.067-0.057L226.175,171.509z"/><path d="M134.518,211.151c0,46.427,27.248,89.309,69.416,109.245c1.638,0.775,2.683,2.425,2.683,4.236v16.374h98.766v-16.374    c0-1.812,1.045-3.461,2.684-4.236c42.168-19.937,69.416-62.818,69.416-109.245c0-66.658-54.498-120.887-121.485-120.887    C189.013,90.265,134.518,144.494,134.518,211.151z M255.997,125.742c39.243,0,72.38,26.638,82.313,62.789h16.817    c2.589,0,4.686,2.098,4.686,4.686s-2.097,4.686-4.686,4.686h-14.802c0.676,4.319,1.029,8.743,1.029,13.25    c0,47.095-38.291,85.408-85.358,85.408c-47.063,0-85.351-38.313-85.351-85.408c0-1.463,0.037-2.918,0.11-4.364l-13.858,0.079    c-0.009,0-0.019,0-0.027,0c-2.576,0-4.67-2.08-4.685-4.659c-0.015-2.588,2.071-4.697,4.659-4.712l14.911-0.084    C178.344,156.826,213.609,125.742,255.997,125.742z"/><polygon points="305.383,394.825 305.383,377.29 206.617,377.29 206.617,394.825 219.951,394.825 292.051,394.825   "/><rect height="26.506" width="62.729" x="224.637" y="404.195"/><path d="M238.383,465.849c-98.739-8.1-177.266-82.145-191.627-178.38l16.948,19.85c0.927,1.086,2.242,1.644,3.566,1.644    c1.076,0,2.157-0.369,3.04-1.122c1.968-1.681,2.201-4.639,0.521-6.606l-26.799-31.389c-1.681-1.967-4.637-2.199-6.605-0.521    c-1.233,1.053-1.784,2.606-1.612,4.104c-0.03,0.286-0.041,0.578-0.016,0.876c4.277,51.693,26.995,100.427,63.967,137.224    c36.967,36.792,85.923,59.4,137.851,63.661c0.13,0.011,0.26,0.015,0.388,0.015c2.414,0,4.464-1.854,4.665-4.302    C242.882,468.322,240.962,466.06,238.383,465.849z"/><path d="M471.918,269.247c-2.572-0.184-4.843,1.705-5.057,4.283c-8.524,102.95-89.795,183.832-193.242,192.318    c-2.58,0.211-4.499,2.474-4.287,5.053c0.201,2.449,2.25,4.302,4.664,4.302c0.129,0,0.258-0.004,0.389-0.015    c51.926-4.261,100.881-26.869,137.847-63.661c36.971-36.796,59.688-85.529,63.97-137.223    C476.414,271.725,474.497,269.462,471.918,269.247z"/><path d="M40.083,242.755c0.131,0.01,0.262,0.016,0.391,0.016c2.413,0,4.462-1.852,4.665-4.299    c8.518-102.95,89.79-183.83,193.245-192.317c2.579-0.211,4.499-2.473,4.287-5.053c-0.211-2.579-2.472-4.5-5.053-4.287    c-51.928,4.26-100.885,26.868-137.851,63.657c-36.973,36.798-59.69,85.532-63.967,137.228    C35.586,240.278,37.503,242.541,40.083,242.755z"/><path d="M273.619,46.154c98.482,8.079,176.861,81.771,191.514,177.651l-16.835-19.719c-1.681-1.969-4.638-2.2-6.605-0.521    c-1.968,1.68-2.202,4.638-0.521,6.605l26.797,31.388c0.927,1.086,2.242,1.644,3.565,1.644c1.076,0,2.158-0.369,3.04-1.122    c1.159-0.99,1.699-2.423,1.618-3.837c0.006-0.18,0.025-0.358,0.01-0.542c-4.281-51.697-26.999-100.431-63.97-137.227    c-36.965-36.79-85.92-59.397-137.847-63.658c-2.589-0.221-4.842,1.709-5.053,4.287C269.12,43.681,271.039,45.943,273.619,46.154z"/></g></g><g id="Layer_1"/></svg>